# xmcd CD database file
#
# Track frame offsets:
#	150
#	14027
#	34572
#	63152
#	81402
#	103554
#	128315
#	148507
#	160507
#	189697
#
# Disc length: 2653 seconds
#
# Revision: 0
# Processed by: cddbd v1.5.1PL0 Copyright (c) Steve Scherf et al.
# Submitted via: CDex 1.51
#
DISCID=780a5b0a
DTITLE=starke&gorter - The First Time
DYEAR=2005
DGENRE=Jazz
TTITLE0=Better Than Anything
TTITLE1=The First Time
TTITLE2=Angel Eyes
TTITLE3=You
TTITLE4=Summertime
TTITLE5=Nature Boy
TTITLE6=Dreams
TTITLE7=Softly, As In A Morning Sunrise
TTITLE8=You Can Go On
TTITLE9=Pearls Of Your Heart
EXTD=YEAR: 2005
EXTT0=
EXTT1=
EXTT2=
EXTT3=
EXTT4=
EXTT5=
EXTT6=
EXTT7=
EXTT8=
EXTT9=
PLAYORDER=
